
<svg xmlns="http://www.w3.org/2000/svg"
     xmlns:xlink="http://www.w3.org/1999/xlink" version="1.1" width="587"
     height="337">
    <defs>
        <linearGradient x1="0%" y1="0%" x2="0%" y2="100%"
                        id="mx-gradient-ffffff-1-ffffff-1-s-0">
            <stop offset="0%" style="stop-color:#ffffff"/>
            <stop offset="100%" style="stop-color:#ffffff"/>
        </linearGradient>
    </defs>
    <g transform=" scale(0.89) translate(-751.1,-49.1)">
        <rect x="1096.2" y="394.2" width="3.6" height="3.6" fill="#000000"
              stroke="none" pointer-events="none"/>
        <rect x="988.2" y="394.2" width="3.6" height="3.6" fill="#000000"
              stroke="none" pointer-events="none"/>
        <ellipse cx="1075" cy="396" rx="3.6" ry="3.6" fill="none"
                 stroke="#000000" stroke-width="3.6" pointer-events="none"/>
        <rect x="1009.18" y="381.83" width="70.06" height="1.69" fill="none"
              stroke="#000000" stroke-width="1.94" pointer-events="none"/>
        <ellipse cx="1012" cy="396" rx="3.6" ry="3.6" fill="none"
                 stroke="#000000" stroke-width="3.6" pointer-events="none"/>
        <path d="M 1080.9 396 L 1096.2 396" fill="none" stroke="#000000"
              stroke-width="3.6" stroke-linecap="square" stroke-miterlimit="10"
              pointer-events="none"/>
        <path d="M 991.8 396 L 1007.1 396" fill="none" stroke="#000000"
              stroke-width="3.6" stroke-linecap="square" stroke-miterlimit="10"
              pointer-events="none"/>
        <path d="M 1044.21 352.3 C 1044.21 380.89 1044.21 380.89 1044.21 380.89"
              fill="none" stroke="#000000" stroke-width="3.6"
              stroke-linecap="square" stroke-miterlimit="10"
              pointer-events="none"/>
        <rect x="1076.4" y="342" width="127.8" height="23.4" fill-opacity="0"
              fill="#dae2f2" stroke="none" pointer-events="none"/>
        <g fill="#000000" font-family="Arial,Helvetica" font-weight="bold"
           text-anchor="middle" font-size="21.6px">
            <text x="1140.3" y="360.9">
                Outside Button
            </text>
        </g>
        <rect x="916.2" y="196.2" width="3.6" height="3.6" fill="#000000"
              stroke="none" pointer-events="none"/>
        <rect x="916.2" y="304.2" width="3.6" height="3.6" fill="#000000"
              stroke="none" pointer-events="none"/>
        <path d="M 914.64 234 C 909.19 234.01 904.76 230 904.75 225.03 C 904.73 220.06 909.14 216.02 914.59 216 C 914.6 216 914.61 216 914.62 216"
              fill="none" stroke="#000000" stroke-width="3.6"
              stroke-linejoin="round" stroke-linecap="round"
              stroke-miterlimit="10" pointer-events="none"/>
        <path d="M 914.4 216 L 918 216" fill="none" stroke="#000000"
              stroke-width="3.6" stroke-linejoin="round" stroke-linecap="round"
              stroke-miterlimit="10" pointer-events="none"/>
        <path d="M 914.4 234 L 918 234" fill="none" stroke="#000000"
              stroke-width="3.6" stroke-linejoin="round" stroke-linecap="round"
              stroke-miterlimit="10" pointer-events="none"/>
        <path d="M 914.64 252 C 909.19 252.01 904.76 248 904.75 243.03 C 904.73 238.06 909.14 234.02 914.59 234 C 914.6 234 914.61 234 914.62 234"
              fill="none" stroke="#000000" stroke-width="3.6"
              stroke-linejoin="round" stroke-linecap="round"
              stroke-miterlimit="10" pointer-events="none"/>
        <path d="M 914.4 234 L 918 234" fill="none" stroke="#000000"
              stroke-width="3.6" stroke-linejoin="round" stroke-linecap="round"
              stroke-miterlimit="10" pointer-events="none"/>
        <path d="M 914.4 252 L 918 252" fill="none" stroke="#000000"
              stroke-width="3.6" stroke-linejoin="round" stroke-linecap="round"
              stroke-miterlimit="10" pointer-events="none"/>
        <path d="M 914.64 270 C 909.19 270.01 904.76 266 904.75 261.03 C 904.73 256.06 909.14 252.02 914.59 252 C 914.6 252 914.61 252 914.62 252"
              fill="none" stroke="#000000" stroke-width="3.6"
              stroke-linejoin="round" stroke-linecap="round"
              stroke-miterlimit="10" pointer-events="none"/>
        <path d="M 914.4 252 L 918 252" fill="none" stroke="#000000"
              stroke-width="3.6" stroke-linejoin="round" stroke-linecap="round"
              stroke-miterlimit="10" pointer-events="none"/>
        <path d="M 914.4 270 L 918 270" fill="none" stroke="#000000"
              stroke-width="3.6" stroke-linejoin="round" stroke-linecap="round"
              stroke-miterlimit="10" pointer-events="none"/>
        <path d="M 914.64 288 C 909.19 288.01 904.76 284 904.75 279.03 C 904.73 274.06 909.14 270.02 914.59 270 C 914.6 270 914.61 270 914.62 270"
              fill="none" stroke="#000000" stroke-width="3.6"
              stroke-linejoin="round" stroke-linecap="round"
              stroke-miterlimit="10" pointer-events="none"/>
        <path d="M 914.4 270 L 918 270" fill="none" stroke="#000000"
              stroke-width="3.6" stroke-linejoin="round" stroke-linecap="round"
              stroke-miterlimit="10" pointer-events="none"/>
        <path d="M 914.4 288 L 918 288" fill="none" stroke="#000000"
              stroke-width="3.6" stroke-linejoin="round" stroke-linecap="round"
              stroke-miterlimit="10" pointer-events="none"/>
        <path d="M 918 199.8 L 918 214.2" fill="none" stroke="#000000"
              stroke-width="3.6" stroke-linecap="square" stroke-miterlimit="10"
              pointer-events="none"/>
        <path d="M 918 289.8 L 918 304.2" fill="none" stroke="#000000"
              stroke-width="3.6" stroke-linecap="square" stroke-miterlimit="10"
              pointer-events="none"/>
        <rect x="916.2" y="304.2" width="3.6" height="3.6" fill="#000000"
              stroke="none" pointer-events="none"/>
        <rect x="916.2" y="412.2" width="3.6" height="3.6" fill="#000000"
              stroke="none" pointer-events="none"/>
        <path d="M 914.64 342 C 909.19 342.01 904.76 338 904.75 333.03 C 904.73 328.06 909.14 324.02 914.59 324 C 914.6 324 914.61 324 914.62 324"
              fill="none" stroke="#000000" stroke-width="3.6"
              stroke-linejoin="round" stroke-linecap="round"
              stroke-miterlimit="10" pointer-events="none"/>
        <path d="M 914.4 324 L 918 324" fill="none" stroke="#000000"
              stroke-width="3.6" stroke-linejoin="round" stroke-linecap="round"
              stroke-miterlimit="10" pointer-events="none"/>
        <path d="M 914.4 342 L 918 342" fill="none" stroke="#000000"
              stroke-width="3.6" stroke-linejoin="round" stroke-linecap="round"
              stroke-miterlimit="10" pointer-events="none"/>
        <path d="M 914.64 360 C 909.19 360.01 904.76 356 904.75 351.03 C 904.73 346.06 909.14 342.02 914.59 342 C 914.6 342 914.61 342 914.62 342"
              fill="none" stroke="#000000" stroke-width="3.6"
              stroke-linejoin="round" stroke-linecap="round"
              stroke-miterlimit="10" pointer-events="none"/>
        <path d="M 914.4 342 L 918 342" fill="none" stroke="#000000"
              stroke-width="3.6" stroke-linejoin="round" stroke-linecap="round"
              stroke-miterlimit="10" pointer-events="none"/>
        <path d="M 914.4 360 L 918 360" fill="none" stroke="#000000"
              stroke-width="3.6" stroke-linejoin="round" stroke-linecap="round"
              stroke-miterlimit="10" pointer-events="none"/>
        <path d="M 914.64 378 C 909.19 378.01 904.76 374 904.75 369.03 C 904.73 364.06 909.14 360.02 914.59 360 C 914.6 360 914.61 360 914.62 360"
              fill="none" stroke="#000000" stroke-width="3.6"
              stroke-linejoin="round" stroke-linecap="round"
              stroke-miterlimit="10" pointer-events="none"/>
        <path d="M 914.4 360 L 918 360" fill="none" stroke="#000000"
              stroke-width="3.6" stroke-linejoin="round" stroke-linecap="round"
              stroke-miterlimit="10" pointer-events="none"/>
        <path d="M 914.4 378 L 918 378" fill="none" stroke="#000000"
              stroke-width="3.6" stroke-linejoin="round" stroke-linecap="round"
              stroke-miterlimit="10" pointer-events="none"/>
        <path d="M 914.64 396 C 909.19 396.01 904.76 392 904.75 387.03 C 904.73 382.06 909.14 378.02 914.59 378 C 914.6 378 914.61 378 914.62 378"
              fill="none" stroke="#000000" stroke-width="3.6"
              stroke-linejoin="round" stroke-linecap="round"
              stroke-miterlimit="10" pointer-events="none"/>
        <path d="M 914.4 378 L 918 378" fill="none" stroke="#000000"
              stroke-width="3.6" stroke-linejoin="round" stroke-linecap="round"
              stroke-miterlimit="10" pointer-events="none"/>
        <path d="M 914.4 396 L 918 396" fill="none" stroke="#000000"
              stroke-width="3.6" stroke-linejoin="round" stroke-linecap="round"
              stroke-miterlimit="10" pointer-events="none"/>
        <path d="M 918 307.8 L 918 322.2" fill="none" stroke="#000000"
              stroke-width="3.6" stroke-linecap="square" stroke-miterlimit="10"
              pointer-events="none"/>
        <path d="M 918 397.8 L 918 412.2" fill="none" stroke="#000000"
              stroke-width="3.6" stroke-linecap="square" stroke-miterlimit="10"
              pointer-events="none"/>
        <rect x="846" y="324" width="37.8" height="25.2" fill-opacity="0"
              fill="#dae2f2" stroke="none" pointer-events="none"/>
        <g fill="#000000" font-family="Arial,Helvetica" font-weight="bold"
           text-anchor="middle" font-size="21.6px">
            <text x="864.9" y="343.8">
                Bell
            </text>
        </g>
        <rect x="1222.2" y="70.2" width="3.6" height="3.6" fill="#000000"
              stroke="none" pointer-events="none"/>
        <rect x="1222.2" y="178.2" width="3.6" height="3.6" fill="#000000"
              stroke="none" pointer-events="none"/>
        <path d="M 1224 93.6 L 1236.6 99 L 1224 104.4" fill="none"
              stroke="#000000" stroke-width="3.6" stroke-linejoin="round"
              stroke-linecap="round" stroke-miterlimit="10"
              pointer-events="none"/>
        <path d="M 1224 104.4 L 1211.4 109.8 L 1224 115.2" fill="none"
              stroke="#000000" stroke-width="3.6" stroke-linejoin="round"
              stroke-linecap="round" stroke-miterlimit="10"
              pointer-events="none"/>
        <path d="M 1224 115.2 L 1236.6 120.6 L 1224 126" fill="none"
              stroke="#000000" stroke-width="3.6" stroke-linejoin="round"
              stroke-linecap="round" stroke-miterlimit="10"
              pointer-events="none"/>
        <path d="M 1224 126 L 1211.4 131.4 L 1224 136.8" fill="none"
              stroke="#000000" stroke-width="3.6" stroke-linejoin="round"
              stroke-linecap="round" stroke-miterlimit="10"
              pointer-events="none"/>
        <path d="M 1224 136.8 L 1236.6 142.2 L 1224 147.6" fill="none"
              stroke="#000000" stroke-width="3.6" stroke-linejoin="round"
              stroke-linecap="round" stroke-miterlimit="10"
              pointer-events="none"/>
        <path d="M 1224 147.6 L 1211.4 153 L 1224 158.4" fill="none"
              stroke="#000000" stroke-width="3.6" stroke-linejoin="round"
              stroke-linecap="round" stroke-miterlimit="10"
              pointer-events="none"/>
        <path d="M 1224 73.8 L 1224 91.8" fill="#000000" stroke="#000000"
              stroke-width="3.6" stroke-linecap="square" stroke-miterlimit="10"
              pointer-events="none"/>
        <path d="M 1224 160.2 L 1224 178.2" fill="#000000" stroke="#000000"
              stroke-width="3.6" stroke-linecap="square" stroke-miterlimit="10"
              pointer-events="none"/>
        <rect x="1278" y="108" width="93.6" height="25.2" fill-opacity="0"
              fill="#dae2f2" stroke="none" pointer-events="none"/>
        <g fill="#000000" font-family="Arial,Helvetica" font-weight="bold"
           text-anchor="middle" font-size="21.6px">
            <text x="1324.8" y="127.8">
                Door lock
            </text>
        </g>
        <rect x="1114.2" y="142.2" width="3.6" height="3.6" fill="#000000"
              stroke="none" pointer-events="none"/>
        <rect x="1006.2" y="142.2" width="3.6" height="3.6" fill="#000000"
              stroke="none" pointer-events="none"/>
        <ellipse cx="1093" cy="144" rx="3.6" ry="3.6" fill="none"
                 stroke="#000000" stroke-width="3.6" pointer-events="none"/>
        <rect x="1027.18" y="129.83" width="70.06" height="1.69" fill="none"
              stroke="#000000" stroke-width="1.94" pointer-events="none"/>
        <ellipse cx="1030" cy="144" rx="3.6" ry="3.6" fill="none"
                 stroke="#000000" stroke-width="3.6" pointer-events="none"/>
        <path d="M 1098.9 144 L 1114.2 144" fill="none" stroke="#000000"
              stroke-width="3.6" stroke-linecap="square" stroke-miterlimit="10"
              pointer-events="none"/>
        <path d="M 1009.8 144 L 1025.1 144" fill="none" stroke="#000000"
              stroke-width="3.6" stroke-linecap="square" stroke-miterlimit="10"
              pointer-events="none"/>
        <path d="M 1062.21 100.3 C 1062.21 128.89 1062.21 128.89 1062.21 128.89"
              fill="none" stroke="#000000" stroke-width="3.6"
              stroke-linecap="square" stroke-miterlimit="10"
              pointer-events="none"/>
        <rect x="990" y="180" width="129.6" height="25.2" fill-opacity="0"
              fill="#dae2f2" stroke="none" pointer-events="none"/>
        <g fill="#000000" font-family="Arial,Helvetica" font-weight="bold"
           text-anchor="middle" font-size="21.6px">
            <text x="1054.8" y="199.8">
                Inside Button
            </text>
        </g>
        <rect x="772.2" y="160.2" width="3.6" height="3.6" fill="#000000"
              stroke="none" pointer-events="none"/>
        <rect x="772.2" y="268.2" width="3.6" height="3.6" fill="#000000"
              stroke="none" pointer-events="none"/>
        <path d="M 774 163.8 L 774 181.8" fill="#000000" stroke="#000000"
              stroke-width="3.6" stroke-linecap="square" stroke-miterlimit="10"
              pointer-events="none"/>
        <path d="M 774 250.2 L 774 268.2" fill="#000000" stroke="#000000"
              stroke-width="3.6" stroke-linecap="square" stroke-miterlimit="10"
              pointer-events="none"/>
        <path d="M 761.4 183.6 C 785.51 183.28 786.6 183.6 786.6 183.6 L 786.6 248.4 L 761.4 248.4 Z"
              fill="#ffffff" stroke="#000000" stroke-width="3.6"
              stroke-linejoin="round" stroke-linecap="round"
              stroke-miterlimit="10" pointer-events="none"/>
        <rect x="792" y="180" width="82.8" height="25.2" fill-opacity="0"
              fill="#dae2f2" stroke="none" pointer-events="none"/>
        <g fill="#000000" font-family="Arial,Helvetica" font-weight="bold"
           text-anchor="middle" font-size="21.6px">
            <text x="833.4" y="199.8">
                Platform
            </text>
        </g>
        <ellipse cx="774" cy="72" rx="18" ry="18"
                 fill="url(#mx-gradient-ffffff-1-ffffff-1-s-0)" stroke="#000000"
                 stroke-width="1.8" pointer-events="none"/>
        <g fill="#000" font-family="Arial,Helvetica" text-anchor="middle"
           font-size="21.6px">
            <text x="774" y="79.2">
                W1
            </text>
        </g>
        <path d="M 774 162 L 774 90" fill="none" stroke="#000000"
              stroke-width="3.6" stroke-miterlimit="10" pointer-events="none"/>
        <ellipse cx="918" cy="72" rx="18" ry="18"
                 fill="url(#mx-gradient-ffffff-1-ffffff-1-s-0)" stroke="#000000"
                 stroke-width="1.8" pointer-events="none"/>
        <g fill="#000" font-family="Arial,Helvetica" text-anchor="middle"
           font-size="21.6px">
            <text x="918" y="79.2">
                W2
            </text>
        </g>
        <ellipse cx="918" cy="144" rx="36" ry="18"
                 fill="url(#mx-gradient-ffffff-1-ffffff-1-s-0)" stroke="#000000"
                 stroke-width="1.8" pointer-events="none"/>
        <g fill="#000" font-family="Arial,Helvetica" text-anchor="middle"
           font-size="21.6px">
            <text x="918" y="151.2">
                Screw
            </text>
        </g>
        <path d="M 918 198 L 918 162" fill="none" stroke="#000000"
              stroke-width="3.6" stroke-miterlimit="10" pointer-events="none"/>
        <path d="M 1008 144 L 954 144" fill="none" stroke="#000000"
              stroke-width="3.6" stroke-miterlimit="10" pointer-events="none"/>
        <path d="M 918 126 L 918 90" fill="none" stroke="#000000"
              stroke-width="3.6" stroke-miterlimit="10" pointer-events="none"/>
        <ellipse cx="1134" cy="72" rx="18" ry="18"
                 fill="url(#mx-gradient-ffffff-1-ffffff-1-s-0)" stroke="#000000"
                 stroke-width="1.8" pointer-events="none"/>
        <g fill="#000" font-family="Arial,Helvetica" text-anchor="middle"
           font-size="21.6px">
            <text x="1134" y="79.2">
                W3
            </text>
        </g>
        <path d="M 1116 144 L 1125 144 Q 1134 144 1134 126 L 1134 90"
              fill="none" stroke="#000000" stroke-width="3.6"
              stroke-miterlimit="10" pointer-events="none"/>
        <rect x="1276.2" y="196.2" width="3.6" height="3.6" fill="#000000"
              stroke="none" pointer-events="none"/>
        <rect x="1276.2" y="304.2" width="3.6" height="3.6" fill="#000000"
              stroke="none" pointer-events="none"/>
        <ellipse cx="1278" cy="252" rx="34.199723322000004"
                 ry="34.199723322000004" fill="#ffffff" stroke="#000000"
                 stroke-width="3.6" pointer-events="none"/>
        <path d="M 1278 199.8 L 1278 216" fill="none" stroke="#000000"
              stroke-width="3.6" stroke-linecap="square" stroke-miterlimit="10"
              pointer-events="none"/>
        <path d="M 1278 288 L 1278 304.2" fill="none" stroke="#000000"
              stroke-width="3.6" stroke-linecap="square" stroke-miterlimit="10"
              pointer-events="none"/>
        <path d="M 1251.77 252 C 1278 188.86 1278.1 314.54 1303.76 252.21"
              fill="none" stroke="#000000" stroke-width="3.6"
              stroke-linejoin="round" stroke-linecap="round"
              stroke-miterlimit="10" pointer-events="none"/>
        <path d="M 1283.08 209.36 L 1294.77 209.36" fill="none" stroke="#000000"
              stroke-width="2.32" stroke-linecap="round" stroke-miterlimit="10"
              pointer-events="none"/>
        <path d="M 1288.78 203.47 L 1288.78 215.72" fill="none" stroke="#000000"
              stroke-width="2.5" stroke-linecap="round" stroke-miterlimit="10"
              pointer-events="none"/>
    </g>
</svg>
